<svg aria-hidden="true" style="width:0;height:0;position:absolute;overflow:hidden" xmlns="http://www.w3.org/2000/svg"><defs><symbol id="icon-topUp" viewBox="0 0 32 32"><path d="M15 20.933h2v-6.067l2.467 2.467 1.4-1.4L16 11.066l-4.867 4.867 1.4 1.4L15 14.866zm1 8.4q-2.733 0-5.167-1.05t-4.25-2.867-2.867-4.25-1.05-5.167q0-2.767 1.05-5.2t2.867-4.233 4.25-2.85T16 2.666q2.767 0 5.2 1.05t4.233 2.85 2.85 4.233 1.05 5.2q0 2.733-1.05 5.167t-2.85 4.25-4.233 2.867-5.2 1.05zm0-2q4.733 0 8.033-3.317t3.3-8.017q0-4.733-3.3-8.033T16 4.666q-4.7 0-8.017 3.3t-3.317 8.033q0 4.7 3.317 8.017T16 27.333z"/></symbol></defs></svg>