<svg aria-hidden="true" style="position: absolute; width: 0; height: 0; overflow: hidden;" version="1.1" xmlns="http://www.w3.org/2000/svg" xmlns:xlink="http://www.w3.org/1999/xlink">
<defs>
<symbol id="icon-topUp" viewBox="0 0 32 32">
<path d="M15 20.933h2v-6.067l2.467 2.467 1.4-1.4-4.867-4.867-4.867 4.867 1.4 1.4 2.467-2.467zM16 29.333q-2.733 0-5.167-1.050t-4.25-2.867-2.867-4.25-1.050-5.167q0-2.767 1.050-5.2t2.867-4.233 4.25-2.85 5.167-1.050q2.767 0 5.2 1.050t4.233 2.85 2.85 4.233 1.050 5.2q0 2.733-1.050 5.167t-2.85 4.25-4.233 2.867-5.2 1.050zM16 27.333q4.733 0 8.033-3.317t3.3-8.017q0-4.733-3.3-8.033t-8.033-3.3q-4.7 0-8.017 3.3t-3.317 8.033q0 4.7 3.317 8.017t8.017 3.317z"></path>
</symbol>
</defs>
</svg>
